{
  "source": "C:\\Users\\Peter\\Desktop\\stuff\\MIUN\\quantitative_research\\video_compression\\videos\\UVG\\ReadySteadyGo_1920x1080_120fps_420_8bit_YUV.y4m",
  "output": "C:\\Users\\Peter\\Desktop\\stuff\\MIUN\\quantitative_research\\video_compression\\compressed_videos\\UVG\\vp9\\1\\ReadySteadyGo_1920x1080_120fps_420_8bit_YUV_vp9.webm",
  "codec": "vp9",
  "ok": "[yuv4mpegpipe @ 00000183ec3853c0] Stream #0: not enough frames to estimate rate; consider increasing probesize\nInput #0, yuv4mpegpipe, from 'C:\\Users\\Peter\\Desktop\\stuff\\MIUN\\quantitative_research\\video_compression\\videos\\UVG\\ReadySteadyGo_1920x1080_120fps_420_8bit_YUV.y4m':\n  Duration: 00:00:05.00, start: 0.000000, bitrate: 2985989 kb/s\n  Stream #0:0: Video: rawvideo (I420 / 0x30323449), yuv420p(progressive), 1920x1080, 120 fps, 120 tbr, 120 tbn\n[out#0/webm @ 00000183ec389080] Codec AVOption b:a (set bitrate (in bits/s)) has not been used for any stream. The most likely reason is either wrong type (e.g. a video option with no video streams) or that it is a private option of some decoder which was not actually used for any stream.\nStream mapping:\n  Stream #0:0 -> #0:0 (rawvideo (native) -> vp9 (libvpx-vp9))\nPress [q] to stop, [?] for help\n[libvpx-vp9 @ 00000183ec38c100] v1.15.2-100-g40561f514\nOutput #0, webm, to 'C:\\Users\\Peter\\Desktop\\stuff\\MIUN\\quantitative_research\\video_compression\\compressed_videos\\UVG\\vp9\\1\\ReadySteadyGo_1920x1080_120fps_420_8bit_YUV_vp9.webm':\n  Metadata:\n    encoder         : Lavf62.3.100\n  Stream #0:0: Video: vp9, yuv420p(tv, progressive), 1920x1080, q=2-31, 1000 kb/s, 120 fps, 1k tbn\n    Metadata:\n      encoder         : Lavc62.11.100 libvpx-vp9\n    Side data:\n      cpb: bitrate max/min/avg: 0/0/0 buffer size: 1000000 vbv_delay: N/A\nframe=    1 fps=0.0 q=54.0 size=       0KiB time=00:00:00.00 bitrate= 461.8kbits/s speed=0.0161x elapsed=0:00:00.51    \nframe=    7 fps=6.7 q=63.0 size=       0KiB time=00:00:00.05 bitrate=  66.0kbits/s speed=0.0562x elapsed=0:00:01.03    \nframe=   14 fps=9.0 q=63.0 size=       0KiB time=00:00:00.11 bitrate=  33.0kbits/s speed=0.0749x elapsed=0:00:01.55    \nframe=   20 fps=9.5 q=63.0 size=       0KiB time=00:00:00.15 bitrate=  24.3kbits/s speed=0.075x elapsed=0:00:02.11    \nframe=   25 fps=9.3 q=63.0 size=       0KiB time=00:00:00.20 bitrate=  18.5kbits/s speed=0.0773x elapsed=0:00:02.69    \nframe=   30 fps=9.3 q=63.0 size=       0KiB time=00:00:00.25 bitrate=  15.4kbits/s speed=0.0773x elapsed=0:00:03.23    \nframe=   36 fps=9.5 q=63.0 size=       0KiB time=00:00:00.30 bitrate=  12.8kbits/s speed=0.0795x elapsed=0:00:03.77    \nframe=   42 fps=9.7 q=63.0 size=       0KiB time=00:00:00.35 bitrate=  11.0kbits/s speed=0.0808x elapsed=0:00:04.33    \nframe=   47 fps=9.7 q=63.0 size=       0KiB time=00:00:00.39 bitrate=   9.8kbits/s speed=0.0804x elapsed=0:00:04.86    \nframe=   52 fps=9.6 q=63.0 size=       0KiB time=00:00:00.43 bitrate=   8.9kbits/s speed=0.0802x elapsed=0:00:05.40    \nframe=   57 fps=9.6 q=63.0 size=       0KiB time=00:00:00.47 bitrate=   8.1kbits/s speed=0.0801x elapsed=0:00:05.92    \nframe=   61 fps=9.5 q=63.0 size=       0KiB time=00:00:00.50 bitrate=   7.6kbits/s speed=0.0789x elapsed=0:00:06.43    \nframe=   66 fps=9.5 q=63.0 size=       0KiB time=00:00:00.55 bitrate=   7.0kbits/s speed=0.0791x elapsed=0:00:06.95    \nframe=   70 fps=9.4 q=63.0 size=       0KiB time=00:00:00.58 bitrate=   6.6kbits/s speed=0.078x elapsed=0:00:07.47    \nframe=   74 fps=9.3 q=56.0 size=       0KiB time=00:00:00.61 bitrate=   6.2kbits/s speed=0.0771x elapsed=0:00:07.99    \nframe=   80 fps=9.4 q=63.0 size=       0KiB time=00:00:00.66 bitrate=   5.8kbits/s speed=0.0784x elapsed=0:00:08.50    \nframe=   84 fps=9.3 q=63.0 size=       0KiB time=00:00:00.70 bitrate=   5.5kbits/s speed=0.0776x elapsed=0:00:09.02    \nframe=   88 fps=9.2 q=56.0 size=       0KiB time=00:00:00.73 bitrate=   5.2kbits/s speed=0.0768x elapsed=0:00:09.54    \nframe=   93 fps=9.2 q=63.0 size=       0KiB time=00:00:00.77 bitrate=   5.0kbits/s speed=0.077x elapsed=0:00:10.05    \nframe=   98 fps=9.3 q=63.0 size=       0KiB time=00:00:00.81 bitrate=   4.7kbits/s speed=0.0773x elapsed=0:00:10.56    \nframe=  102 fps=9.2 q=56.0 size=       0KiB time=00:00:00.85 bitrate=   4.5kbits/s speed=0.0767x elapsed=0:00:11.07    \nframe=  107 fps=9.2 q=63.0 size=       0KiB time=00:00:00.89 bitrate=   4.3kbits/s speed=0.0769x elapsed=0:00:11.59    \nframe=  112 fps=9.2 q=63.0 size=       0KiB time=00:00:00.93 bitrate=   4.1kbits/s speed=0.0771x elapsed=0:00:12.11    \nframe=  116 fps=9.2 q=56.0 size=       0KiB time=00:00:00.96 bitrate=   4.0kbits/s speed=0.0765x elapsed=0:00:12.62    \nframe=  121 fps=9.2 q=63.0 size=       0KiB time=00:00:01.00 bitrate=   3.8kbits/s speed=0.0767x elapsed=0:00:13.15    \nframe=  126 fps=9.2 q=63.0 size=       0KiB time=00:00:01.05 bitrate=   3.7kbits/s speed=0.0768x elapsed=0:00:13.66    \nframe=  129 fps=9.1 q=56.0 size=       0KiB time=00:00:01.07 bitrate=   3.6kbits/s speed=0.0758x elapsed=0:00:14.17    \nframe=  135 fps=9.2 q=63.0 size=     170KiB time=00:00:01.12 bitrate=1234.9kbits/s speed=0.0765x elapsed=0:00:14.70    \nframe=  140 fps=9.2 q=63.0 size=     170KiB time=00:00:01.16 bitrate=1190.8kbits/s speed=0.0766x elapsed=0:00:15.22    \nframe=  144 fps=9.2 q=63.0 size=     170KiB time=00:00:01.20 bitrate=1157.7kbits/s speed=0.0763x elapsed=0:00:15.73    \nframe=  149 fps=9.2 q=63.0 size=     170KiB time=00:00:01.24 bitrate=1118.8kbits/s speed=0.0764x elapsed=0:00:16.25    \nframe=  154 fps=9.2 q=63.0 size=     170KiB time=00:00:01.28 bitrate=1082.5kbits/s speed=0.0765x elapsed=0:00:16.77    \nframe=  159 fps=9.2 q=63.0 size=     170KiB time=00:00:01.32 bitrate=1048.5kbits/s speed=0.0766x elapsed=0:00:17.29    \nframe=  164 fps=9.2 q=63.0 size=     170KiB time=00:00:01.36 bitrate=1016.5kbits/s speed=0.0768x elapsed=0:00:17.80    \nframe=  168 fps=9.2 q=63.0 size=     170KiB time=00:00:01.40 bitrate= 992.3kbits/s speed=0.0764x elapsed=0:00:18.31    \nframe=  173 fps=9.2 q=63.0 size=     170KiB time=00:00:01.44 bitrate= 963.6kbits/s speed=0.0765x elapsed=0:00:18.83    \nframe=  178 fps=9.2 q=63.0 size=     170KiB time=00:00:01.48 bitrate= 936.6kbits/s speed=0.0767x elapsed=0:00:19.34    \nframe=  182 fps=9.2 q=63.0 size=     170KiB time=00:00:01.51 bitrate= 916.0kbits/s speed=0.0764x elapsed=0:00:19.86    \nframe=  188 fps=9.2 q=63.0 size=     170KiB time=00:00:01.56 bitrate= 886.7kbits/s speed=0.0768x elapsed=0:00:20.38    \nframe=  192 fps=9.2 q=63.0 size=     170KiB time=00:00:01.60 bitrate= 868.3kbits/s speed=0.0766x elapsed=0:00:20.89    \nframe=  196 fps=9.2 q=63.0 size=     170KiB time=00:00:01.63 bitrate= 850.5kbits/s speed=0.0763x elapsed=0:00:21.41    \nframe=  201 fps=9.2 q=63.0 size=     170KiB time=00:00:01.67 bitrate= 829.4kbits/s speed=0.0764x elapsed=0:00:21.92    \nframe=  206 fps=9.2 q=63.0 size=     170KiB time=00:00:01.71 bitrate= 809.3kbits/s speed=0.0765x elapsed=0:00:22.43    \nframe=  211 fps=9.2 q=63.0 size=     170KiB time=00:00:01.75 bitrate= 790.1kbits/s speed=0.0766x elapsed=0:00:22.95    \nframe=  216 fps=9.2 q=63.0 size=     170KiB time=00:00:01.80 bitrate= 771.8kbits/s speed=0.0767x elapsed=0:00:23.47    \nframe=  220 fps=9.2 q=63.0 size=     170KiB time=00:00:01.83 bitrate= 757.8kbits/s speed=0.0764x elapsed=0:00:23.98    \nframe=  224 fps=9.1 q=63.0 size=     170KiB time=00:00:01.86 bitrate= 744.2kbits/s speed=0.0762x elapsed=0:00:24.50    \nframe=  229 fps=9.2 q=63.0 size=     170KiB time=00:00:01.90 bitrate= 728.0kbits/s speed=0.0763x elapsed=0:00:25.02    \nframe=  234 fps=9.2 q=63.0 size=     170KiB time=00:00:01.95 bitrate= 712.4kbits/s speed=0.0764x elapsed=0:00:25.53    \nframe=  239 fps=9.2 q=63.0 size=     170KiB time=00:00:01.99 bitrate= 697.5kbits/s speed=0.0764x elapsed=0:00:26.05    \nframe=  243 fps=9.1 q=63.0 size=     170KiB time=00:00:02.02 bitrate= 686.0kbits/s speed=0.0762x elapsed=0:00:26.57    \nframe=  247 fps=9.1 q=56.0 size=     170KiB time=00:00:02.05 bitrate= 674.9kbits/s speed=0.076x elapsed=0:00:27.09    \nframe=  252 fps=9.1 q=63.0 size=     170KiB time=00:00:02.10 bitrate= 661.5kbits/s speed=0.076x elapsed=0:00:27.62    \nframe=  256 fps=9.1 q=63.0 size=     170KiB time=00:00:02.13 bitrate= 651.2kbits/s speed=0.0758x elapsed=0:00:28.14    \nframe=  260 fps=9.1 q=63.0 size=     256KiB time=00:00:02.16 bitrate= 967.9kbits/s speed=0.0756x elapsed=0:00:28.66    \nframe=  265 fps=9.1 q=63.0 size=     256KiB time=00:00:02.20 bitrate= 949.7kbits/s speed=0.0757x elapsed=0:00:29.18    \nframe=  270 fps=9.1 q=63.0 size=     256KiB time=00:00:02.25 bitrate= 932.1kbits/s speed=0.0758x elapsed=0:00:29.69    \nframe=  274 fps=9.1 q=63.0 size=     256KiB time=00:00:02.28 bitrate= 918.5kbits/s speed=0.0756x elapsed=0:00:30.21    \nframe=  278 fps=9.0 q=63.0 size=     256KiB time=00:00:02.31 bitrate= 905.2kbits/s speed=0.0754x elapsed=0:00:30.72    \nframe=  283 fps=9.1 q=63.0 size=     256KiB time=00:00:02.35 bitrate= 889.3kbits/s speed=0.0755x elapsed=0:00:31.23    \nframe=  287 fps=9.0 q=56.0 size=     256KiB time=00:00:02.39 bitrate= 876.9kbits/s speed=0.0753x elapsed=0:00:31.76    \nframe=  292 fps=9.0 q=63.0 size=     256KiB time=00:00:02.43 bitrate= 861.8kbits/s speed=0.0754x elapsed=0:00:32.29    \nframe=  296 fps=9.0 q=63.0 size=     256KiB time=00:00:02.46 bitrate= 850.2kbits/s speed=0.0752x elapsed=0:00:32.80    \nframe=  301 fps=9.0 q=63.0 size=     256KiB time=00:00:02.50 bitrate= 836.1kbits/s speed=0.0753x elapsed=0:00:33.31    \nframe=  305 fps=9.0 q=63.0 size=     256KiB time=00:00:02.54 bitrate= 825.1kbits/s speed=0.0751x elapsed=0:00:33.83    \nframe=  309 fps=9.0 q=63.0 size=     256KiB time=00:00:02.57 bitrate= 814.4kbits/s speed=0.075x elapsed=0:00:34.34    \nframe=  313 fps=9.0 q=63.0 size=     256KiB time=00:00:02.60 bitrate= 804.0kbits/s speed=0.0748x elapsed=0:00:34.86    \nframe=  317 fps=9.0 q=56.0 size=     256KiB time=00:00:02.64 bitrate= 793.9kbits/s speed=0.0747x elapsed=0:00:35.38    \nframe=  322 fps=9.0 q=63.0 size=     256KiB time=00:00:02.68 bitrate= 781.5kbits/s speed=0.0747x elapsed=0:00:35.89    \nframe=  327 fps=9.0 q=63.0 size=     256KiB time=00:00:02.72 bitrate= 769.6kbits/s speed=0.0748x elapsed=0:00:36.42    \nframe=  331 fps=9.0 q=63.0 size=     256KiB time=00:00:02.75 bitrate= 760.3kbits/s speed=0.0747x elapsed=0:00:36.94    \nframe=  335 fps=8.9 q=63.0 size=     256KiB time=00:00:02.79 bitrate= 751.2kbits/s speed=0.0745x elapsed=0:00:37.45    \nframe=  338 fps=8.9 q=63.0 size=     256KiB time=00:00:02.81 bitrate= 744.6kbits/s speed=0.0742x elapsed=0:00:37.97    \nframe=  343 fps=8.9 q=63.0 size=     256KiB time=00:00:02.85 bitrate= 733.7kbits/s speed=0.0743x elapsed=0:00:38.49    \nframe=  347 fps=8.9 q=63.0 size=     256KiB time=00:00:02.89 bitrate= 725.2kbits/s speed=0.0741x elapsed=0:00:39.01    \nframe=  352 fps=8.9 q=63.0 size=     256KiB time=00:00:02.93 bitrate= 714.9kbits/s speed=0.0742x elapsed=0:00:39.54    \nframe=  356 fps=8.9 q=63.0 size=     256KiB time=00:00:02.96 bitrate= 706.9kbits/s speed=0.074x elapsed=0:00:40.07    \nframe=  359 fps=8.8 q=63.0 size=     256KiB time=00:00:02.99 bitrate= 701.0kbits/s speed=0.0737x elapsed=0:00:40.57    \nframe=  364 fps=8.9 q=63.0 size=     256KiB time=00:00:03.03 bitrate= 691.4kbits/s speed=0.0738x elapsed=0:00:41.09    \nframe=  368 fps=8.8 q=63.0 size=     256KiB time=00:00:03.06 bitrate= 683.9kbits/s speed=0.0737x elapsed=0:00:41.62    \nframe=  372 fps=8.8 q=63.0 size=     256KiB time=00:00:03.10 bitrate= 676.5kbits/s speed=0.0736x elapsed=0:00:42.12    \nframe=  376 fps=8.8 q=63.0 size=     256KiB time=00:00:03.13 bitrate= 669.3kbits/s speed=0.0735x elapsed=0:00:42.64    \nframe=  380 fps=8.8 q=63.0 size=     256KiB time=00:00:03.16 bitrate= 662.3kbits/s speed=0.0734x elapsed=0:00:43.16    \nframe=  384 fps=8.8 q=63.0 size=     256KiB time=00:00:03.20 bitrate= 655.4kbits/s speed=0.0733x elapsed=0:00:43.67    \nframe=  388 fps=8.8 q=63.0 size=     512KiB time=00:00:03.23 bitrate=1297.2kbits/s speed=0.0732x elapsed=0:00:44.20    \nframe=  392 fps=8.8 q=56.0 size=     512KiB time=00:00:03.26 bitrate=1284.0kbits/s speed=0.0731x elapsed=0:00:44.70    \nframe=  396 fps=8.8 q=63.0 size=     512KiB time=00:00:03.30 bitrate=1271.0kbits/s speed=0.073x elapsed=0:00:45.22    \nframe=  401 fps=8.8 q=63.0 size=     512KiB time=00:00:03.34 bitrate=1255.2kbits/s speed=0.0731x elapsed=0:00:45.73    \nframe=  405 fps=8.8 q=63.0 size=     512KiB time=00:00:03.37 bitrate=1242.8kbits/s speed=0.073x elapsed=0:00:46.25    \nframe=  409 fps=8.7 q=63.0 size=     512KiB time=00:00:03.40 bitrate=1230.6kbits/s speed=0.0729x elapsed=0:00:46.76    \nframe=  413 fps=8.7 q=56.0 size=     512KiB time=00:00:03.44 bitrate=1218.7kbits/s speed=0.0728x elapsed=0:00:47.29    \nframe=  417 fps=8.7 q=63.0 size=     512KiB time=00:00:03.47 bitrate=1207.0kbits/s speed=0.0727x elapsed=0:00:47.79    \nframe=  421 fps=8.7 q=63.0 size=     512KiB time=00:00:03.50 bitrate=1195.5kbits/s speed=0.0726x elapsed=0:00:48.31    \nframe=  425 fps=8.7 q=63.0 size=     512KiB time=00:00:03.54 bitrate=1184.3kbits/s speed=0.0725x elapsed=0:00:48.83    \nframe=  429 fps=8.7 q=63.0 size=     512KiB time=00:00:03.57 bitrate=1173.2kbits/s speed=0.0724x elapsed=0:00:49.34    \nframe=  433 fps=8.7 q=63.0 size=     512KiB time=00:00:03.60 bitrate=1162.4kbits/s speed=0.0724x elapsed=0:00:49.86    \nframe=  437 fps=8.7 q=63.0 size=     512KiB time=00:00:03.64 bitrate=1151.8kbits/s speed=0.0723x elapsed=0:00:50.38    \nframe=  441 fps=8.7 q=56.0 size=     512KiB time=00:00:03.67 bitrate=1141.3kbits/s speed=0.0722x elapsed=0:00:50.89    \nframe=  445 fps=8.7 q=63.0 size=     512KiB time=00:00:03.70 bitrate=1131.0kbits/s speed=0.0721x elapsed=0:00:51.40    \nframe=  449 fps=8.6 q=63.0 size=     512KiB time=00:00:03.74 bitrate=1121.0kbits/s speed=0.0721x elapsed=0:00:51.92    \nframe=  453 fps=8.6 q=63.0 size=     512KiB time=00:00:03.77 bitrate=1111.1kbits/s speed=0.072x elapsed=0:00:52.44    \nframe=  457 fps=8.6 q=63.0 size=     512KiB time=00:00:03.80 bitrate=1101.3kbits/s speed=0.0719x elapsed=0:00:52.96    \nframe=  461 fps=8.6 q=63.0 size=     512KiB time=00:00:03.84 bitrate=1091.8kbits/s speed=0.0718x elapsed=0:00:53.48    \nframe=  464 fps=8.6 q=63.0 size=     512KiB time=00:00:03.86 bitrate=1084.7kbits/s speed=0.0716x elapsed=0:00:53.99    \nframe=  468 fps=8.6 q=63.0 size=     512KiB time=00:00:03.90 bitrate=1075.5kbits/s speed=0.0715x elapsed=0:00:54.50    \nframe=  472 fps=8.6 q=63.0 size=     512KiB time=00:00:03.93 bitrate=1066.3kbits/s speed=0.0715x elapsed=0:00:55.02    \nframe=  475 fps=8.6 q=63.0 size=     512KiB time=00:00:03.95 bitrate=1059.6kbits/s speed=0.0713x elapsed=0:00:55.53    \nframe=  480 fps=8.6 q=63.0 size=     512KiB time=00:00:04.00 bitrate=1048.6kbits/s speed=0.0714x elapsed=0:00:56.05    \nframe=  483 fps=8.5 q=56.0 size=     512KiB time=00:00:04.02 bitrate=1042.1kbits/s speed=0.0712x elapsed=0:00:56.56    \nframe=  488 fps=8.5 q=63.0 size=     512KiB time=00:00:04.06 bitrate=1031.4kbits/s speed=0.0712x elapsed=0:00:57.08    \nframe=  491 fps=8.5 q=63.0 size=     512KiB time=00:00:04.09 bitrate=1025.1kbits/s speed=0.071x elapsed=0:00:57.60    \nframe=  496 fps=8.5 q=63.0 size=     512KiB time=00:00:04.13 bitrate=1014.8kbits/s speed=0.0711x elapsed=0:00:58.11    \nframe=  499 fps=8.5 q=63.0 size=     512KiB time=00:00:04.15 bitrate=1008.7kbits/s speed=0.0709x elapsed=0:00:58.63    \nframe=  503 fps=8.5 q=63.0 size=     512KiB time=00:00:04.19 bitrate=1000.6kbits/s speed=0.0709x elapsed=0:00:59.15    \nframe=  507 fps=8.5 q=63.0 size=     512KiB time=00:00:04.22 bitrate= 992.7kbits/s speed=0.0708x elapsed=0:00:59.66    \nframe=  511 fps=8.5 q=63.0 size=     512KiB time=00:00:04.25 bitrate= 985.0kbits/s speed=0.0708x elapsed=0:01:00.18    \nframe=  514 fps=8.5 q=63.0 size=     768KiB time=00:00:04.28 bitrate=1468.8kbits/s speed=0.0706x elapsed=0:01:00.70    \nframe=  518 fps=8.5 q=63.0 size=     768KiB time=00:00:04.31 bitrate=1457.5kbits/s speed=0.0705x elapsed=0:01:01.22    \nframe=  522 fps=8.5 q=63.0 size=     768KiB time=00:00:04.35 bitrate=1446.3kbits/s speed=0.0705x elapsed=0:01:01.74    \nframe=  526 fps=8.4 q=63.0 size=     768KiB time=00:00:04.38 bitrate=1435.3kbits/s speed=0.0704x elapsed=0:01:02.25    \nframe=  529 fps=8.4 q=63.0 size=     768KiB time=00:00:04.40 bitrate=1427.2kbits/s speed=0.0702x elapsed=0:01:02.76    \nframe=  533 fps=8.4 q=63.0 size=     768KiB time=00:00:04.44 bitrate=1416.5kbits/s speed=0.0702x elapsed=0:01:03.28    \nframe=  537 fps=8.4 q=63.0 size=     768KiB time=00:00:04.47 bitrate=1405.9kbits/s speed=0.0701x elapsed=0:01:03.80    \nframe=  541 fps=8.4 q=56.0 size=     768KiB time=00:00:04.50 bitrate=1395.5kbits/s speed=0.0701x elapsed=0:01:04.31    \nframe=  546 fps=8.4 q=63.0 size=     768KiB time=00:00:04.55 bitrate=1382.7kbits/s speed=0.0702x elapsed=0:01:04.84    \nframe=  549 fps=8.4 q=63.0 size=     768KiB time=00:00:04.57 bitrate=1375.2kbits/s speed=0.07x elapsed=0:01:05.37    \nframe=  554 fps=8.4 q=63.0 size=     768KiB time=00:00:04.61 bitrate=1362.8kbits/s speed=0.0701x elapsed=0:01:05.89    \nframe=  557 fps=8.4 q=63.0 size=     768KiB time=00:00:04.64 bitrate=1355.4kbits/s speed=0.0699x elapsed=0:01:06.40    \nframe=  561 fps=8.4 q=63.0 size=     768KiB time=00:00:04.67 bitrate=1345.8kbits/s speed=0.0699x elapsed=0:01:06.92    \nframe=  565 fps=8.4 q=63.0 size=     768KiB time=00:00:04.70 bitrate=1336.2kbits/s speed=0.0698x elapsed=0:01:07.44    \nframe=  568 fps=8.4 q=63.0 size=     768KiB time=00:00:04.73 bitrate=1329.2kbits/s speed=0.0697x elapsed=0:01:07.95    \nframe=  573 fps=8.4 q=63.0 size=     768KiB time=00:00:04.77 bitrate=1317.6kbits/s speed=0.0697x elapsed=0:01:08.48    \nframe=  576 fps=8.3 q=63.0 size=     768KiB time=00:00:04.80 bitrate=1310.7kbits/s speed=0.0696x elapsed=0:01:09.00    \nframe=  576 fps=8.3 q=63.0 size=     768KiB time=00:00:04.80 bitrate=1310.7kbits/s speed=0.069x elapsed=0:01:09.52    \nframe=  576 fps=8.2 q=63.0 size=     768KiB time=00:00:04.80 bitrate=1310.7kbits/s speed=0.0685x elapsed=0:01:10.04    \nframe=  576 fps=8.2 q=63.0 size=     768KiB time=00:00:04.80 bitrate=1310.7kbits/s speed=0.068x elapsed=0:01:10.55    \nframe=  576 fps=8.1 q=63.0 size=     768KiB time=00:00:04.80 bitrate=1310.7kbits/s speed=0.0675x elapsed=0:01:11.06    \nframe=  576 fps=8.0 q=63.0 size=     768KiB time=00:00:04.80 bitrate=1310.7kbits/s speed=0.067x elapsed=0:01:11.58    \n[out#0/webm @ 00000183ec389080] video:1117KiB audio:0KiB subtitle:0KiB other streams:0KiB global headers:0KiB muxing overhead: 0.422552%\nframe=  600 fps=8.4 q=63.0 Lsize=    1122KiB time=00:00:05.00 bitrate=1838.5kbits/s speed=0.0697x elapsed=0:01:11.71    \n",
  "seconds": 71.85625696182251,
  "probe_out": {}
}